<svg width="28" height="28" viewBox="0 0 28 28" fill="none" xmlns="http://www.w3.org/2000/svg">
<g clip-path="url(#clip0)">
<path d="M24.0625 4.375C23.8209 4.375 23.625 4.57089 23.625 4.8125V7H21.875V4.8125C21.875 4.57089 21.6791 4.375 21.4375 4.375C21.1959 4.375 21 4.57089 21 4.8125V7.4375C21 7.67911 21.1959 7.875 21.4375 7.875H23.625V10.0625C23.625 10.3041 23.8209 10.5 24.0625 10.5C24.3041 10.5 24.5 10.3041 24.5 10.0625V4.8125C24.5 4.57089 24.3041 4.375 24.0625 4.375Z" fill="#222222"/>
<path d="M18.5132 8.28992L18.6087 8.25814C19.5157 7.95583 20.125 7.11036 20.125 6.15437C20.125 5.19614 19.3488 4.36133 18.3414 4.37517C17.3949 4.39311 16.625 5.17804 16.625 6.12484C16.625 6.36645 16.8209 6.56234 17.0625 6.56234C17.3041 6.56234 17.5 6.36645 17.5 6.12484C17.5 5.65147 17.8849 5.25897 18.3579 5.25006C18.8467 5.23803 19.25 5.66443 19.25 6.15437C19.25 6.73313 18.8811 7.24495 18.3321 7.42799L18.2366 7.45976C17.2727 7.7811 16.625 8.67973 16.625 9.69582V10.0624C16.625 10.304 16.8209 10.4999 17.0625 10.4999H19.6875C19.9291 10.4999 20.125 10.304 20.125 10.0624C20.125 9.82078 19.9291 9.62489 19.6875 9.62489H17.5017C17.5306 9.0154 17.9297 8.48444 18.5132 8.28992Z" fill="#222222"/>
<path d="M27.9993 7.32176C27.9378 3.29608 24.6838 0.0491993 20.6543 0.00052704C15.1605 -0.0632391 11.5064 5.67139 13.829 10.5988L13.1593 13.3691C12.9522 14.2248 13.6983 15.0246 14.5934 14.8532L17.6281 14.2733C22.5592 16.3968 28.0815 12.698 27.9993 7.32176ZM17.8606 13.4194C17.7778 13.3819 17.6856 13.3713 17.5979 13.3882C14.1444 14.0482 14.4356 13.9959 14.3626 13.9999C14.1335 13.9999 14.0001 13.8302 14.0001 13.6557C14.0001 13.5953 13.9479 13.8307 14.7163 10.6521C14.7405 10.552 14.7286 10.4465 14.6827 10.3544C12.5133 5.99564 15.7415 0.818713 20.6437 0.875479C24.223 0.918792 27.0697 3.75622 27.1244 7.33516C27.1971 12.0915 22.2577 15.4113 17.8606 13.4194Z" fill="#222222"/>
<path d="M19.7565 18.7622C19.0728 18.0783 17.9657 18.078 17.2816 18.7621L15.3576 20.6861L14.8079 20.3563C11.8689 18.5928 9.40798 16.1323 7.64408 13.1925L7.3142 12.6427L9.23823 10.7187C9.9221 10.0348 9.92221 8.92779 9.23823 8.24381L5.83528 4.8408C5.15288 4.15845 4.04271 4.15862 3.36037 4.8408L0.832915 7.3682C0.184973 8.0162 -0.111873 8.94266 0.0387372 9.84655C0.314583 11.5011 0.874369 12.9902 1.91497 14.4093C4.20842 17.5365 5.99032 19.2266 8.36891 21.6051C9.98784 23.224 11.7448 24.7314 13.5911 26.0854C14.8793 27.03 16.393 27.6681 17.9687 27.9307C18.1984 27.9689 18.356 28.0001 18.6193 28.0001C19.3672 28.0001 20.0953 27.7042 20.6321 27.1674L23.1595 24.64C23.8434 23.9561 23.8435 22.849 23.1595 22.1651L19.7565 18.7622ZM3.97906 5.45959C4.32026 5.11845 4.87534 5.11839 5.21654 5.45959L8.61949 8.8626C8.9614 9.20446 8.96151 9.75806 8.61949 10.1L8.00075 10.7187L3.36032 6.07827L3.97906 5.45959ZM20.0134 26.5486C19.5648 26.9973 18.9234 27.2027 18.2975 27.0985C16.7749 26.8449 15.4145 26.3374 14.1086 25.3798C12.2981 24.0521 10.5751 22.5739 8.9876 20.9864C6.66664 18.6654 4.89486 16.993 2.62055 13.8918C1.68605 12.6175 1.1629 11.2686 0.901822 9.70266C0.797532 9.07692 1.0031 8.43549 1.45165 7.98688L2.74158 6.69701L7.38201 11.3374L6.45391 12.2655C6.31194 12.4075 6.28481 12.6278 6.38812 12.8L6.89376 13.6427C8.73095 16.7046 11.2948 19.2687 14.3577 21.1065L15.2004 21.6121C15.3724 21.7154 15.5929 21.6883 15.7348 21.5463L16.6628 20.6182L21.3033 25.2586L20.0134 26.5486ZM22.5407 24.0212L21.922 24.64L17.2816 19.9996L17.9004 19.3808C18.2422 19.039 18.7957 19.0388 19.1378 19.3809L22.5408 22.7839C22.8827 23.1257 22.8828 23.6793 22.5407 24.0212Z" fill="#222222"/>
</g>
<defs>
<clipPath id="clip0">
<rect width="28" height="28" fill="white"/>
</clipPath>
</defs>
</svg>
