<svg width="28" height="28" viewBox="0 0 28 28" fill="none" xmlns="http://www.w3.org/2000/svg">
<g clip-path="url(#clip0)">
<path d="M19.25 23.3333H1.547C0.694167 23.3333 0 22.6392 0 21.7863V7.58333C0 7.26133 0.261333 7 0.583333 7H22.75C23.072 7 23.3333 7.26133 23.3333 7.58333V12.25C23.3333 12.572 23.072 12.8333 22.75 12.8333C22.428 12.8333 22.1667 12.572 22.1667 12.25V8.16667H1.16667V21.7863C1.16667 21.9963 1.337 22.1667 1.547 22.1667H19.25C19.572 22.1667 19.8333 22.428 19.8333 22.75C19.8333 23.072 19.572 23.3333 19.25 23.3333Z" fill="#222222"/>
<path d="M22.75 8.16667C22.5447 8.16667 22.3452 8.05817 22.239 7.8645L18.7157 1.46883C18.6142 1.28217 18.4182 1.16667 18.2047 1.16667H5.12866C4.91516 1.16667 4.71916 1.28217 4.61766 1.46883L1.09433 7.8645C0.939159 8.148 0.582159 8.24717 0.302159 8.09433C0.0198259 7.93917 -0.0828408 7.58333 0.0723259 7.30217L3.59566 0.9065C3.90249 0.3465 4.49049 0 5.12866 0H18.2058C18.844 0 19.432 0.3465 19.7388 0.905333L23.261 7.301C23.4173 7.58333 23.3147 7.938 23.0323 8.09317C22.9425 8.14333 22.8457 8.16667 22.75 8.16667Z" fill="#222222"/>
<path d="M11.6666 8.16667C11.3446 8.16667 11.0833 7.90533 11.0833 7.58333V0.583333C11.0833 0.261333 11.3446 0 11.6666 0C11.9886 0 12.2499 0.261333 12.2499 0.583333V7.58333C12.2499 7.90533 11.9886 8.16667 11.6666 8.16667Z" fill="#222222"/>
<path d="M27.4167 28C27.0947 28 26.8333 27.7387 26.8333 27.4167V25.0833C26.8333 21.5448 23.954 18.6667 20.4167 18.6667H18.0833C17.7613 18.6667 17.5 18.4053 17.5 18.0833C17.5 17.7613 17.7613 17.5 18.0833 17.5H20.4167C24.598 17.5 28 20.902 28 25.0833V27.4167C28 27.7387 27.7387 28 27.4167 28Z" fill="#222222"/>
<path d="M22.1667 22.1668C22.0325 22.1668 21.8972 22.1202 21.7875 22.0257L17.7042 18.5257C17.5735 18.416 17.5 18.2538 17.5 18.0835C17.5 17.9132 17.5735 17.751 17.7042 17.6413L21.7875 14.1413C22.0313 13.9325 22.3977 13.9593 22.61 14.2043C22.82 14.4482 22.7908 14.8168 22.5458 15.0268L18.9805 18.0835L22.547 21.1413C22.792 21.3513 22.82 21.7188 22.6112 21.9638C22.4933 22.098 22.3312 22.1668 22.1667 22.1668Z" fill="#222222"/>
</g>
<defs>
<clipPath id="clip0">
<rect width="28" height="28" fill="white"/>
</clipPath>
</defs>
</svg>
