<svg width="8" height="8" viewBox="0 0 8 8" fill="none" xmlns="http://www.w3.org/2000/svg">
<g clip-path="url(#clip0)">
<path d="M-2.86102e-06 6.3239C0.369653 6.85182 1.10462 6.99095 1.63264 6.62129L4.34761 4.72027L5.33484 5.41162C4.96725 6.04627 5.14015 6.86754 5.75218 7.29604C6.3985 7.74845 7.28898 7.59145 7.74158 6.94526C8.19397 6.29904 8.03709 5.40837 7.39076 4.95577C6.94726 4.64524 6.38862 4.62196 5.93562 4.84668L4.72643 4.00004L5.93551 3.15349C6.38851 3.3781 6.94712 3.35482 7.39065 3.0444C8.03695 2.59181 8.19384 1.70123 7.74147 1.05502C7.28887 0.408727 6.39829 0.251727 5.75209 0.704133C5.14014 1.13263 4.96726 1.9539 5.33475 2.58856L4.34751 3.2799L1.63265 1.37899C1.10464 1.00923 0.369669 1.14845 1.28746e-05 1.67638L3.31892 4.00006L-2.86102e-06 6.3239ZM6.56833 5.38227C6.97728 5.38227 7.30883 5.71382 7.30883 6.12277C7.30883 6.53173 6.97726 6.86327 6.56833 6.86327C6.15928 6.86327 5.82783 6.53173 5.82783 6.12277C5.82783 5.71382 6.15928 5.38227 6.56833 5.38227ZM6.56833 1.13674C6.97728 1.13674 7.30883 1.46829 7.30883 1.87724C7.30883 2.2862 6.97728 2.61774 6.56833 2.61774C6.15928 2.61774 5.82783 2.2862 5.82783 1.87724C5.82783 1.46831 6.15928 1.13674 6.56833 1.13674Z" fill="#FF4C3B"/>
</g>
<defs>
<clipPath id="clip0">
<rect width="8" height="8" fill="white" transform="translate(8 8) rotate(-180)"/>
</clipPath>
</defs>
</svg>
