<svg width="28" height="28" viewBox="0 0 28 28" fill="none" xmlns="http://www.w3.org/2000/svg">
<g clip-path="url(#clip0)">
<path d="M5.50898 13.5609C5.28236 13.5609 5.09863 13.3772 5.09863 13.1506C5.09863 12.924 5.28236 12.7402 5.50898 12.7402C5.73561 12.7402 5.91933 12.924 5.91933 13.1506C5.91933 13.3772 5.73561 13.5609 5.50898 13.5609Z" fill="#222222"/>
<path d="M27.5896 14.7011C27.8163 14.7011 28 14.5174 28 14.2908V12.3003C28 12.1631 27.9314 12.0349 27.8173 11.9589L25.2682 10.2595C25.2008 10.2146 25.1215 10.1905 25.0406 10.1905H24.6138C24.6138 10.1905 24.614 4.65668 24.614 4.65268C24.614 3.95788 24.0487 3.39258 23.3539 3.39258H3.80942C3.58279 3.39258 3.39907 3.57625 3.39907 3.80293V5.0923H2.10964C1.88301 5.0923 1.69929 5.27598 1.69929 5.50265V11.0404H0.41035C0.183727 11.0404 0 11.2241 0 11.4508V14.8498C0 15.0765 0.183727 15.2602 0.41035 15.2602H1.69929V20.7984C1.69929 21.0251 1.88301 21.2087 2.10964 21.2087H18.1236C19.0681 22.764 20.5467 23.9817 22.3611 24.5865C22.4476 24.6145 22.5342 24.6145 22.6207 24.5865C25.7819 23.5323 27.9999 20.46 27.9999 17.1233V16.0793C27.9999 15.8527 27.8162 15.669 27.5896 15.669C27.363 15.669 27.1792 15.8527 27.1792 16.0793V17.1233C27.1792 20.0746 25.2719 22.7766 22.4909 23.7632C19.7144 22.7781 17.803 20.0683 17.803 17.1233V12.5199L20.066 11.0112H24.9162L27.1792 12.5199V14.2907C27.1793 14.5174 27.363 14.7011 27.5896 14.7011ZM8.86345 5.91306C9.09008 5.91306 9.27381 5.72939 9.27381 5.50271C9.27381 5.27603 9.09008 5.09236 8.86345 5.09236H4.21977V4.21328H23.3539C23.5936 4.21328 23.7892 4.40631 23.7931 4.64519C23.7892 4.86989 23.5824 5.09236 23.3537 5.09236H10.652C10.4254 5.09236 10.2416 5.27603 10.2416 5.50271C10.2416 5.72939 10.4254 5.91306 10.652 5.91306H23.3537C23.5061 5.91306 23.6543 5.88619 23.793 5.83465V7.59396H2.51999V5.913H8.86345V5.91306ZM0.8207 11.8612H5.50892C6.21976 11.8612 6.79808 12.4395 6.79808 13.1504C6.79808 13.8613 6.21976 14.4396 5.50892 14.4396H0.8207V11.8612ZM19.9418 10.1905C19.8608 10.1905 19.7816 10.2145 19.7142 10.2595L17.1651 11.9589C17.051 12.035 16.9824 12.1631 16.9824 12.3003V17.1233C16.9824 17.3478 16.9918 17.5707 17.0105 17.7913H14.9005C14.6739 17.7913 14.4902 17.975 14.4902 18.2017C14.4902 18.4284 14.6739 18.612 14.9005 18.612H17.1235C17.242 19.2302 17.4332 19.8257 17.6893 20.388H2.51999V18.612H13.1125C13.3391 18.612 13.5228 18.4284 13.5228 18.2017C13.5228 17.975 13.3391 17.7913 13.1125 17.7913H2.51999V15.2602H5.50892C6.67229 15.2602 7.61878 14.3137 7.61878 13.1503C7.61878 11.9868 6.67229 11.0404 5.50892 11.0404H2.51999V8.41461H23.7931V10.1905H19.9418V10.1905Z" fill="#222222"/>
<path d="M24.7496 11.9718C24.6822 11.9269 24.603 11.9028 24.522 11.9028H20.4605C20.3795 11.9028 20.3003 11.9268 20.2329 11.9718L18.8776 12.8753C18.7634 12.9514 18.6948 13.0795 18.6948 13.2167V17.123C18.6948 19.5425 20.119 21.7455 22.3231 22.7354C22.4352 22.7834 22.5473 22.7834 22.6594 22.7354C24.8635 21.7454 26.2877 19.5425 26.2877 17.123V13.2167C26.2877 13.0795 26.2191 12.9514 26.1049 12.8753L24.7496 11.9718ZM25.4669 17.123C25.4669 19.1577 24.305 21.0156 22.4912 21.9076C20.6774 21.0155 19.5155 19.1576 19.5155 17.123V13.4363L20.5847 12.7235H24.3977L25.4669 13.4363V17.123Z" fill="#222222"/>
<path d="M23.8654 15.6197L22.0906 17.9278L21.0818 16.919C20.9216 16.7588 20.6618 16.7587 20.5015 16.919C20.3413 17.0792 20.3413 17.339 20.5015 17.4992L21.8409 18.8386C22.0144 19.0121 22.3041 18.9966 22.4563 18.7986L24.5161 16.1199C24.6542 15.9403 24.6206 15.6827 24.4409 15.5445C24.2612 15.4064 24.0036 15.4401 23.8654 15.6197Z" fill="#222222"/>
</g>
<defs>
<clipPath id="clip0">
<rect width="28" height="28" fill="white"/>
</clipPath>
</defs>
</svg>
