<svg width="15" height="14" viewBox="0 0 15 14" fill="none" xmlns="http://www.w3.org/2000/svg">
<path d="M4.83134 12.8334H3.08134C2.77192 12.8334 2.47517 12.7105 2.25638 12.4917C2.03759 12.2729 1.91467 11.9762 1.91467 11.6667V7.58341C1.91467 7.274 2.03759 6.97725 2.25638 6.75846C2.47517 6.53966 2.77192 6.41675 3.08134 6.41675H4.83134M8.91467 5.25008V2.91675C8.91467 2.45262 8.7303 2.0075 8.40211 1.67931C8.07392 1.35112 7.6288 1.16675 7.16467 1.16675L4.83134 6.41675V12.8334H11.4113C11.6927 12.8366 11.9657 12.738 12.1801 12.5558C12.3945 12.3735 12.5358 12.1199 12.578 11.8417L13.383 6.59175C13.4084 6.42454 13.3971 6.25381 13.35 6.09139C13.3028 5.92898 13.2209 5.77875 13.1099 5.65113C12.9989 5.52351 12.8616 5.42154 12.7073 5.35229C12.553 5.28304 12.3855 5.24817 12.2163 5.25008H8.91467Z" stroke="#777777" stroke-linecap="round" stroke-linejoin="round"/>
</svg>
