<svg width="34" height="34" viewBox="0 0 34 34" fill="none" xmlns="http://www.w3.org/2000/svg">
<path d="M31.4596 26.3782L25.9216 23.9795C25.7913 23.9143 25.6468 23.7551 25.5227 23.5426L29.2202 23.5397C29.2848 23.546 30.8091 23.6854 32.0314 23.1601C32.4944 22.9606 32.8389 22.5668 32.9772 22.0794C33.1166 21.5876 33.0282 21.0668 32.7358 20.6497C31.6789 19.1458 29.2122 15.216 29.1352 11.23C29.1335 11.1615 28.9102 4.383 22.2162 4.32804C21.2307 4.33597 20.3195 4.50314 19.4905 4.8114C19.3097 4.3507 19.0434 3.87017 18.6473 3.41797C17.4839 2.0897 15.5952 1.4165 13.0333 1.4165C10.4714 1.4165 8.58273 2.0897 7.4188 3.41684C6.07693 4.9474 6.2016 6.80324 6.23333 7.11434V10.1284C5.87067 10.5415 5.66667 11.0702 5.66667 11.6159V13.8826C5.66667 14.5722 5.98003 15.2154 6.51497 15.6444C7.03403 17.6997 8.12033 19.2484 8.5 19.7453V21.6204C8.5 22.169 8.2008 22.6722 7.7197 22.9351L2.66447 25.6925C1.02057 26.5901 0 28.3094 0 30.1816V32.5832H24.9333H26.0667H34V30.4882C34 28.7361 33.0265 27.1619 31.4596 26.3782ZM24.9333 31.4498H1.13333V30.1816C1.13333 28.7247 1.9278 27.3857 3.20677 26.6887L8.262 23.9313C9.10803 23.4695 9.63333 22.5838 9.63333 21.621V19.3436L9.5013 19.186C9.4877 19.1696 8.0988 17.4894 7.56897 15.1825L7.5174 14.9581L7.32417 14.8335C6.99607 14.6215 6.8 14.2662 6.8 13.8832V11.6165C6.8 11.2986 6.93487 11.0022 7.17967 10.7807L7.36667 10.6124V7.08317L7.36157 7.00894C7.35987 6.99364 7.1672 5.42284 8.27107 4.1637C9.21003 3.0927 10.8126 2.54984 13.0333 2.54984C15.2462 2.54984 16.8453 3.08874 17.7854 4.15237C18.2529 4.6805 18.4881 5.2704 18.6054 5.777C18.6144 5.81667 18.6229 5.85577 18.6309 5.89487C18.6388 5.9351 18.6473 5.97534 18.6535 6.01387C18.6609 6.05807 18.6671 6.1 18.6734 6.14194C18.6779 6.17197 18.6824 6.20257 18.6858 6.23147C18.6943 6.30174 18.7011 6.36974 18.7057 6.43264C18.7062 6.43774 18.7062 6.44227 18.7062 6.44737C18.7102 6.50857 18.713 6.56637 18.7147 6.61907C18.7147 6.62927 18.7147 6.63777 18.7153 6.64797C18.7164 6.695 18.7164 6.73977 18.7159 6.77887C18.7159 6.78454 18.7159 6.7902 18.7159 6.79587C18.7136 6.92904 18.7045 7.00837 18.7045 7.01007L18.7 10.6124L18.887 10.7812C19.1318 11.0022 19.2667 11.2986 19.2667 11.6165V13.8832C19.2667 14.3779 18.9425 14.8108 18.4609 14.9593L18.1787 15.046L18.088 15.3265C17.7089 16.5057 17.1689 17.5948 16.4821 18.5638C16.3138 18.8024 16.15 19.0138 16.0078 19.1753L15.8667 19.3362V21.6737C15.8667 21.8171 15.8808 21.9576 15.9029 22.0959C15.9075 22.1253 15.9154 22.1537 15.9211 22.1831C15.9432 22.297 15.9726 22.4087 16.0089 22.5175C16.0174 22.543 16.0265 22.5673 16.0361 22.5928C16.0803 22.7113 16.1319 22.8257 16.1919 22.9357C16.1987 22.9481 16.205 22.9612 16.2118 22.9736C16.2939 23.1187 16.3886 23.2564 16.4974 23.3833L16.6266 23.5426H16.6487C16.843 23.7341 17.0663 23.9007 17.3202 24.0276L22.7335 26.734C24.0907 27.4118 24.9333 28.7752 24.9333 30.2921V31.4498ZM32.8667 31.4498H26.0667V30.2921C26.0667 28.3434 24.9838 26.5918 23.2413 25.7203L19.3551 23.7766C19.4508 23.5579 19.4633 23.3074 19.3794 23.066C19.2406 22.6665 18.8779 22.4087 18.4558 22.4087H17.1995C17.1734 22.3628 17.1564 22.3123 17.1354 22.2636C17.1071 22.1984 17.0737 22.1344 17.055 22.0658C17.0204 21.94 17 21.8086 17 21.6737V19.7578C17.1298 19.5991 17.2663 19.4184 17.4074 19.2189C18.1095 18.2272 18.6722 17.1234 19.0814 15.9328C19.8809 15.5662 20.4 14.7757 20.4 13.8832V11.6165C20.4 11.0708 20.196 10.5421 19.8333 10.129V7.1149C19.8481 6.97324 19.8798 6.50914 19.7857 5.9028C20.5156 5.61607 21.3333 5.46817 22.2167 5.4608C27.7933 5.5067 27.9967 11.0204 28.0024 11.2527C28.0857 15.5497 30.6918 19.7113 31.8087 21.3008C31.9045 21.4368 31.9334 21.608 31.8875 21.7695C31.8614 21.8624 31.7866 22.0313 31.5843 22.118C30.6323 22.5277 29.3409 22.4115 29.2746 22.4087H25.3742C25.0098 22.4087 24.6778 22.594 24.4857 22.9039C24.2941 23.2128 24.276 23.5902 24.4369 23.9143C24.6143 24.2719 24.9277 24.7496 25.4428 25.0063L30.9661 27.3987C32.1385 27.9909 32.8667 29.173 32.8667 30.4882V31.4498Z" fill="#222222"/>
</svg>
