<svg width="36" height="29" viewBox="0 0 36 29" fill="none" xmlns="http://www.w3.org/2000/svg">
<path d="M35.9921 23.7552C35.9921 26.5588 33.722 28.8284 30.921 28.8284H5.57912C2.77817 28.8284 0.510742 26.5588 0.510742 23.7552V5.75651C0.510742 2.95562 2.77817 0.686035 5.57912 0.686035H30.921C33.722 0.686035 35.9921 2.95562 35.9921 5.75651V23.7552Z" fill="url(#paint0_linear)"/>
<path style="mix-blend-mode:multiply" fill-rule="evenodd" clip-rule="evenodd" d="M32.116 9.5546V18.761H35.9921V19.4122H29.492V28.8284H28.8441V19.4122H23.7131C23.1578 21.8316 21.1 23.6598 18.574 23.8996V28.8284H17.9261V23.9459C15.2014 23.8969 12.934 21.976 12.346 19.4122H7.70229V28.8284H7.05445V19.4122H0.510742V18.761H7.05445V9.5546H0.510742V8.90342H7.05445V0.686035H7.70229V8.90342H12.4849C13.2144 6.56299 15.362 4.85195 17.9261 4.80563V0.686035H18.574V4.85195C20.9421 5.07536 22.8856 6.70195 23.577 8.90342H28.8441V0.686035H29.492V8.90342H35.9921V9.5546H32.116ZM12.1909 18.1098C12.1909 16.7475 12.6727 15.4343 13.5573 14.3771C12.6727 13.32 12.1909 12.004 12.1909 10.6417C12.1909 10.2684 12.2317 9.90607 12.2998 9.5546H7.70229V18.761H12.2562C12.2317 18.5458 12.1909 18.3333 12.1909 18.1098ZM23.2205 18.1098C23.2205 16.8157 22.7278 15.5678 21.8295 14.5951L21.6254 14.3771L21.8295 14.1564C22.7278 13.1838 23.2205 11.9386 23.2205 10.6417C23.2205 7.77544 20.8931 5.44591 18.0296 5.44591C15.166 5.44591 12.8387 7.77544 12.8387 10.6417C12.8387 11.9386 13.3314 13.1838 14.2269 14.1564L14.4311 14.3771L14.2269 14.5951C13.3314 15.5678 12.8387 16.8157 12.8387 18.1098C12.8387 20.9761 15.166 23.3056 18.0296 23.3056C20.8931 23.3056 23.2205 20.9761 23.2205 18.1098ZM31.4654 9.5546H23.7594C23.8275 9.90607 23.871 10.2684 23.871 10.6417C23.871 12.004 23.3865 13.32 22.5018 14.3771C23.3865 15.4343 23.871 16.7475 23.871 18.1098C23.871 18.3333 23.8275 18.5458 23.803 18.761H31.4654V9.5546Z" fill="url(#paint1_linear)"/>
<defs>
<linearGradient id="paint0_linear" x1="38.7133" y1="-6.89216" x2="38.713" y2="64.1125" gradientUnits="userSpaceOnUse">
<stop stop-color="#FFCA3F"/>
<stop offset="0.097" stop-color="#CA7C22"/>
<stop offset="0.189" stop-color="#FDDB7A"/>
<stop offset="0.42" stop-color="#FFAD45"/>
<stop offset="0.554" stop-color="#A95F0D"/>
<stop offset="0.656" stop-color="#FFAD45"/>
<stop offset="0.79" stop-color="#FFFF9B"/>
<stop offset="1" stop-color="#FFCA3F"/>
</linearGradient>
<linearGradient id="paint1_linear" x1="38.713" y1="-24.1018" x2="38.713" y2="64.8013" gradientUnits="userSpaceOnUse">
<stop stop-color="#FFCA3F"/>
<stop offset="0.097" stop-color="#CA7C22"/>
<stop offset="0.189" stop-color="#FDDB7A"/>
<stop offset="0.42" stop-color="#FFAD45"/>
<stop offset="0.554" stop-color="#A95F0D"/>
<stop offset="0.656" stop-color="#FFAD45"/>
<stop offset="0.79" stop-color="#FFFF9B"/>
<stop offset="1" stop-color="#FFCA3F"/>
</linearGradient>
</defs>
</svg>
