<svg width="36" height="36" viewBox="0 0 36 36" fill="none" xmlns="http://www.w3.org/2000/svg">
<path d="M5.16089 31.9291C5.16089 32.1577 5.22867 32.3811 5.35565 32.5711C5.48264 32.7612 5.66313 32.9093 5.87429 32.9968C6.08546 33.0842 6.31783 33.1071 6.542 33.0625C6.76618 33.018 6.9721 32.9079 7.13372 32.7463C7.29534 32.5846 7.4054 32.3787 7.45 32.1546C7.49459 31.9304 7.4717 31.698 7.38423 31.4868C7.29676 31.2757 7.14864 31.0952 6.95859 30.9682C6.76855 30.8412 6.54511 30.7734 6.31654 30.7734C6.01015 30.7738 5.7164 30.8956 5.49974 31.1123C5.28309 31.3289 5.16122 31.6227 5.16089 31.9291ZM6.62845 31.9291C6.62845 31.9908 6.61016 32.0511 6.57589 32.1024C6.54161 32.1537 6.4929 32.1936 6.43591 32.2173C6.37891 32.2409 6.3162 32.247 6.2557 32.235C6.19519 32.223 6.13961 32.1933 6.09599 32.1496C6.05237 32.106 6.02267 32.0504 6.01063 31.9899C5.9986 31.9294 6.00477 31.8667 6.02838 31.8097C6.05199 31.7527 6.09197 31.704 6.14326 31.6698C6.19455 31.6355 6.25486 31.6172 6.31654 31.6172C6.39918 31.6174 6.47837 31.6503 6.53677 31.7088C6.59516 31.7672 6.62801 31.8465 6.6281 31.9291H6.62845Z" fill="#222222"/>
<path d="M31.7688 2.13132C31.7338 2.06107 31.6799 2.00203 31.6131 1.96087C31.5462 1.91971 31.4692 1.89809 31.3908 1.89844H12.4422C12.3637 1.89809 12.2867 1.91971 12.2199 1.96087C12.1531 2.00203 12.0991 2.06107 12.0641 2.13132L9.59909 7.11C9.5303 7.18778 9.49227 7.28799 9.49215 7.39182V22.3393C9.11737 22.5654 8.80222 22.878 8.57307 23.251C8.34392 23.6239 8.20744 24.0463 8.17505 24.4828C7.93913 24.6627 7.6734 24.7998 7.39001 24.8876L7.38868 24.8772C7.34685 24.7393 7.26198 24.6184 7.14649 24.5323C7.03099 24.4461 6.89095 24.3992 6.74686 24.3984H2.34038C2.23655 24.3989 2.13422 24.4233 2.04135 24.4697C1.94849 24.5161 1.86758 24.5834 1.80493 24.6662C1.74228 24.749 1.69958 24.8451 1.68014 24.9471C1.66071 25.0491 1.66506 25.1542 1.69287 25.2542L4.02106 33.6111C4.06084 33.7523 4.14564 33.8766 4.26254 33.9651C4.37945 34.0536 4.52207 34.1015 4.66871 34.1016H9.33113C9.43603 34.102 9.53956 34.0777 9.63337 34.0308C9.72718 33.9838 9.80865 33.9155 9.87121 33.8313C9.93377 33.7471 9.97567 33.6494 9.99354 33.546C10.0114 33.4427 10.0047 33.3365 9.97407 33.2362L9.36713 31.2464L11.5651 29.8572C11.8482 29.7013 12.1799 29.6588 12.4932 29.738C12.5059 29.7412 12.5187 29.7439 12.5315 29.7458L16.4124 30.346C17.5274 30.5186 18.6671 30.2789 19.6181 29.6717L27.219 24.8203H33.9099C34.0167 24.8203 34.1191 24.7779 34.1946 24.7024C34.27 24.6269 34.3125 24.5245 34.3125 24.4178V7.53082C34.3449 7.42746 34.3361 7.31557 34.2881 7.2185L31.7688 2.13132ZM22.3593 2.74219H31.1288L33.219 6.96094H22.3593V2.74219ZM21.9164 7.82754C21.9627 7.82746 22.0086 7.81974 22.0524 7.80469H24.8906V10.8281H19.1953V7.80469H21.7804C21.8241 7.81973 21.8701 7.82745 21.9164 7.82754ZM4.79893 33.2578L2.56636 25.2422H6.60933L9.07027 33.2578H4.79893ZM19.1641 28.9747C18.3853 29.4692 17.4528 29.6627 16.5415 29.5191L12.6789 28.9182C12.1592 28.7916 11.6109 28.8664 11.1441 29.1277C11.1376 29.1314 11.1311 29.1347 11.1247 29.1383L9.10958 30.4118L7.64033 25.6852C8.09474 25.541 8.51372 25.3028 8.87002 24.9861C8.91414 24.9497 8.94968 24.9039 8.97411 24.8522C8.99854 24.8004 9.01125 24.7439 9.01135 24.6867C9.01195 24.4353 9.06216 24.1865 9.15912 23.9546C9.25607 23.7227 9.39786 23.5121 9.57635 23.3351C9.75484 23.1581 9.96652 23.018 10.1992 22.923C10.432 22.8279 10.6812 22.7798 10.9326 22.7813H11.0643C11.4756 22.779 11.8813 22.6852 12.2518 22.5065C12.6223 22.3279 12.9483 22.0689 13.2062 21.7485L14.8776 19.6914C15.0387 19.4911 15.2692 19.3586 15.5234 19.3201C15.7776 19.2816 16.037 19.34 16.2502 19.4837L16.2784 19.5005C16.496 19.6462 16.6532 19.8662 16.7205 20.1193C16.7877 20.3724 16.7606 20.6413 16.644 20.8759C15.976 22.2037 14.9827 24.1805 14.9827 24.1805C14.9504 24.2474 14.9351 24.3212 14.9383 24.3953C14.9414 24.4695 14.9628 24.5417 15.0006 24.6056C15.0377 24.6686 15.09 24.7213 15.1527 24.7588C15.2154 24.7963 15.2865 24.8175 15.3596 24.8203H25.6962L19.1641 28.9747ZM19.4062 23.9766V19.9477L19.6853 20.2396C19.7245 20.2807 19.7716 20.3135 19.8237 20.3361C19.8758 20.3586 19.9319 20.3705 19.9887 20.371C20.0455 20.3711 20.1016 20.36 20.154 20.3383C20.2064 20.3166 20.2539 20.2847 20.2939 20.2444L21.0297 19.4946L21.756 20.243C21.7953 20.2835 21.8424 20.3157 21.8944 20.3377C21.9464 20.3598 22.0023 20.3711 22.0588 20.3711C22.1153 20.3711 22.1712 20.3598 22.2232 20.3377C22.2752 20.3157 22.3223 20.2835 22.3616 20.243L23.0878 19.4947L23.8234 20.2446C23.8632 20.2849 23.9106 20.3169 23.9629 20.3386C24.0153 20.3603 24.0714 20.3714 24.128 20.3712C24.1826 20.3705 24.2364 20.3585 24.2861 20.3359C24.3357 20.3133 24.3801 20.2805 24.4163 20.2397L24.6796 19.9477V23.9766H19.4062ZM33.4687 23.9766H25.5234V18.8903C25.5266 18.807 25.5041 18.7248 25.459 18.6547C25.4139 18.5846 25.3484 18.53 25.2714 18.4983C25.1943 18.4667 25.1093 18.4594 25.028 18.4776C24.9466 18.4957 24.8728 18.5384 24.8165 18.5998L24.1161 19.3414L23.3859 18.6068C23.3464 18.5684 23.2994 18.5385 23.248 18.5188C23.1965 18.4991 23.1416 18.49 23.0865 18.4922H23.0854C23.0299 18.4901 22.9745 18.4993 22.9226 18.5193C22.8708 18.5393 22.8235 18.5696 22.7837 18.6083L22.0595 19.3491L21.3353 18.6114C21.2957 18.5721 21.2485 18.5414 21.1967 18.5209C21.1448 18.5004 21.0894 18.4906 21.0337 18.4922H21.0325C20.9772 18.49 20.922 18.4991 20.8703 18.5188C20.8185 18.5384 20.7713 18.5684 20.7314 18.6068L19.9991 19.3473L19.2952 18.6028C19.2372 18.541 19.162 18.4981 19.0793 18.4795C18.9967 18.4609 18.9103 18.4675 18.8315 18.4985C18.7526 18.5294 18.6848 18.5833 18.6369 18.6531C18.5889 18.723 18.563 18.8056 18.5625 18.8903V23.9766H16.0437C16.3905 23.2734 16.9631 22.1326 17.3976 21.2684C17.6061 20.849 17.6553 20.3681 17.536 19.9151C17.4167 19.4621 17.137 19.0679 16.749 18.8056L16.7208 18.7832C16.3341 18.5204 15.8628 18.4125 15.4002 18.4808C14.9377 18.5491 14.5177 18.7887 14.2235 19.1521L12.5521 21.2161C12.3732 21.4392 12.1469 21.6197 11.8895 21.7445C11.6322 21.8693 11.3503 21.9352 11.0643 21.9375H10.9326C10.7319 21.9376 10.5319 21.9594 10.3359 22.0023V7.80469H12.9375C13.0493 7.80469 13.1567 7.76024 13.2358 7.68113C13.3149 7.60201 13.3593 7.49471 13.3593 7.38282C13.3593 7.27093 13.3149 7.16362 13.2358 7.08451C13.1567 7.00539 13.0493 6.96094 12.9375 6.96094H10.6139L12.7041 2.74219H21.5156V6.96094H15.75C15.6381 6.96094 15.5308 7.00539 15.4516 7.08451C15.3725 7.16362 15.3281 7.27093 15.3281 7.38282C15.3281 7.49471 15.3725 7.60201 15.4516 7.68113C15.5308 7.76024 15.6381 7.80469 15.75 7.80469H18.3515V11.2348C18.3507 11.3482 18.3942 11.4573 18.4728 11.539C18.5513 11.6207 18.6588 11.6684 18.7721 11.6719H25.3457C25.5787 11.6719 25.7343 11.468 25.7343 11.2348V7.80469H33.4687V23.9766Z" fill="#222222"/>
<path d="M12.375 9.40527C12.2631 9.40527 12.1558 9.44972 12.0767 9.52884C11.9976 9.60795 11.9531 9.71526 11.9531 9.82715V10.2701C11.9531 10.382 11.9976 10.4893 12.0767 10.5684C12.1558 10.6475 12.2631 10.692 12.375 10.692C12.4869 10.692 12.5942 10.6475 12.6733 10.5684C12.7524 10.4893 12.7969 10.382 12.7969 10.2701V9.82715C12.7969 9.71526 12.7524 9.60795 12.6733 9.52884C12.5942 9.44972 12.4869 9.40527 12.375 9.40527Z" fill="#222222"/>
<path d="M12.375 11.1836C12.2631 11.1836 12.1558 11.228 12.0767 11.3072C11.9976 11.3863 11.9531 11.4936 11.9531 11.6055V16.2461C11.9531 16.358 11.9976 16.4653 12.0767 16.5444C12.1558 16.6235 12.2631 16.668 12.375 16.668C12.4869 16.668 12.5942 16.6235 12.6733 16.5444C12.7524 16.4653 12.7969 16.358 12.7969 16.2461V11.6055C12.7969 11.4936 12.7524 11.3863 12.6733 11.3072C12.5942 11.228 12.4869 11.1836 12.375 11.1836Z" fill="#222222"/>
</svg>
