<svg width="32" height="32" viewBox="0 0 32 32" fill="none" xmlns="http://www.w3.org/2000/svg">
<g clip-path="url(#clip0)">
<path d="M31.7193 11.6805L29.1218 7.09717C28.9393 6.77508 28.6784 6.50732 28.3637 6.31537C28.1438 6.12262 27.8093 6.14255 27.6142 6.36117L22.5083 12.0838L19.7089 8.25682C19.535 8.01906 19.2014 7.96726 18.9634 8.14121C18.7258 8.31515 18.674 8.64885 18.8479 8.88661L21.8714 13.0199L15.9278 30.0659C15.6315 30.0465 15.3548 29.9102 15.1606 29.6825C0.773074 12.8144 1.34873 13.4898 1.32766 13.4644H5.25269C5.54725 13.4644 5.78608 13.2256 5.78608 12.9311C5.78608 12.6365 5.54725 12.3977 5.25269 12.3977H1.12411C1.17531 12.2452 0.993628 12.5851 3.80616 7.62309C3.84136 7.56102 3.88223 7.50341 3.9277 7.45027L9.06398 13.207L13.7111 26.5347C13.7878 26.7547 13.9941 26.8926 14.2147 26.8926C14.5798 26.8926 14.8397 26.5312 14.7184 26.1834L10.2834 13.4644H18.6818C18.9764 13.4644 19.2152 13.2256 19.2152 12.9311C19.2152 12.6365 18.9764 12.3977 18.6818 12.3977H9.77158L5.0126 7.06384H13.1636L11.2054 9.74082C10.9447 10.0973 11.2067 10.5892 11.6354 10.5892C11.7998 10.5892 11.9619 10.5134 12.0664 10.3707L14.4854 7.06384H23.6381C23.9326 7.06384 24.1715 6.82501 24.1715 6.53045C24.1715 6.23589 23.9326 5.99707 23.6381 5.99707H4.76591C4.44482 5.99707 4.13372 6.06954 3.8515 6.20096C3.77275 6.22169 3.69721 6.26056 3.63234 6.3185C3.32425 6.50745 3.06202 6.77254 2.87807 7.09711L0.280494 11.6805C0.0573398 12.0743 -0.0308685 12.5189 0.00946866 12.9516C0.0107354 12.9853 0.0149358 13.0183 0.0222032 13.0501C0.0780084 13.4511 0.243691 13.8377 0.517383 14.1586L14.3489 30.3748C15.2155 31.3909 16.7853 31.3897 17.6509 30.3748L31.4824 14.1586C32.0722 13.4671 32.1674 12.4712 31.7193 11.6805ZM30.6707 13.4663L17.4344 28.9847L22.8461 13.4644H27.4311C27.7257 13.4644 27.9645 13.2256 27.9645 12.9311C27.9645 12.6365 27.7257 12.3977 27.4311 12.3977H23.658L28.072 7.45041C28.173 7.56862 27.9428 7.18005 30.7912 12.2064C31.019 12.6084 30.9706 13.1147 30.6707 13.4663Z" fill="#222222"/>
<path d="M8.66253 27.7831C8.41937 27.6169 8.08747 27.679 7.92112 27.9223L6.96796 29.3159C6.72414 29.6723 6.9847 30.1504 7.40781 30.1504C7.57796 30.1504 7.74524 30.0692 7.84852 29.9181L8.80167 28.5245C8.96796 28.2814 8.90568 27.9494 8.66253 27.7831Z" fill="#222222"/>
<path d="M5.36185 24.4735L3.74523 24.9604C3.46321 25.0453 3.30333 25.3428 3.38827 25.6249C3.47361 25.9083 3.77204 26.0664 4.0528 25.9819L5.66941 25.495C5.95144 25.4101 6.11132 25.1126 6.02638 24.8305C5.94144 24.5483 5.64388 24.3885 5.36185 24.4735Z" fill="#222222"/>
<path d="M24.0787 27.9223C23.9124 27.6791 23.5804 27.6168 23.3373 27.7831C23.0942 27.9494 23.0318 28.2814 23.1981 28.5244L24.1513 29.9181C24.2546 30.0691 24.4219 30.1504 24.592 30.1504C25.0136 30.1504 25.2763 29.6732 25.0318 29.3159L24.0787 27.9223Z" fill="#222222"/>
<path d="M28.2546 24.9599L26.638 24.473C26.3558 24.388 26.0584 24.5479 25.9735 24.83C25.8885 25.112 26.0484 25.4096 26.3304 25.4945L27.9471 25.9813C28.2302 26.0667 28.5271 25.9053 28.6116 25.6244C28.6965 25.3424 28.5367 25.0448 28.2546 24.9599Z" fill="#222222"/>
<path d="M15.9997 3.93024C16.2943 3.93024 16.5331 3.69141 16.5331 3.39685V1.39666C16.5331 1.1021 16.2943 0.863281 15.9997 0.863281C15.7051 0.863281 15.4663 1.1021 15.4663 1.39666V3.39685C15.4663 3.69148 15.7051 3.93024 15.9997 3.93024Z" fill="#222222"/>
<path d="M8.92343 3.64051C9.07351 3.8934 9.40067 3.97754 9.65436 3.82692C9.90772 3.67658 9.9912 3.34928 9.84085 3.09599L9.05151 1.76613C8.90109 1.51291 8.57393 1.42923 8.32057 1.57971C8.06722 1.73006 7.98374 2.05736 8.13416 2.31065L8.92343 3.64051Z" fill="#222222"/>
<path d="M22.3453 3.8273C22.5991 3.97805 22.9261 3.89364 23.0762 3.64088L23.8655 2.31109C24.0159 2.0578 23.9324 1.7305 23.679 1.58016C23.4257 1.42981 23.0985 1.51328 22.9481 1.76657L22.1588 3.09637C22.0084 3.34966 22.0919 3.67689 22.3453 3.8273Z" fill="#222222"/>
</g>
<defs>
<clipPath id="clip0">
<rect width="32" height="32" fill="white"/>
</clipPath>
</defs>
</svg>
