<svg width="34" height="30" viewBox="0 0 34 30" fill="none" xmlns="http://www.w3.org/2000/svg">
<path d="M32.6217 7.1082H1.37841C1.30131 7.1082 1.22545 7.0888 1.15782 7.05178C1.09018 7.01477 1.03295 6.96133 0.991395 6.89638C0.949839 6.83144 0.925294 6.75708 0.920021 6.68016C0.914748 6.60324 0.928917 6.52623 0.961222 6.45623L3.71798 0.483254C3.75476 0.403558 3.81359 0.336063 3.88752 0.288755C3.96146 0.241448 4.04739 0.216307 4.13517 0.216309H29.8649C29.9527 0.216307 30.0386 0.241448 30.1125 0.288755C30.1865 0.336063 30.2453 0.403558 30.2821 0.483254L33.0388 6.45623C33.0711 6.52623 33.0853 6.60324 33.08 6.68016C33.0748 6.75708 33.0502 6.83144 33.0087 6.89638C32.9671 6.96133 32.9099 7.01477 32.8423 7.05178C32.7746 7.0888 32.6988 7.1082 32.6217 7.1082ZM2.09655 6.18928H31.9035L29.5708 1.13523H4.42922L2.09655 6.18928Z" fill="#222222"/>
<path d="M3.61 12.6219C2.89655 12.621 2.21256 12.3372 1.70808 11.8328C1.20359 11.3283 0.919796 10.6443 0.918945 9.93083V6.64891C0.918945 6.52706 0.967352 6.41019 1.05352 6.32403C1.13968 6.23786 1.25655 6.18945 1.3784 6.18945H5.84159C5.96345 6.18945 6.08032 6.23786 6.16648 6.32403C6.25265 6.41019 6.30105 6.52706 6.30105 6.64891V9.93083C6.3002 10.6443 6.01641 11.3283 5.51192 11.8328C5.00744 12.3372 4.32345 12.621 3.61 12.6219ZM1.83786 7.10837V9.93083C1.83786 10.4008 2.02457 10.8516 2.35691 11.1839C2.68925 11.5163 3.14 11.703 3.61 11.703C4.08 11.703 4.53075 11.5163 4.86309 11.1839C5.19543 10.8516 5.38213 10.4008 5.38213 9.93083V7.10837H1.83786Z" fill="#222222"/>
<path d="M8.07313 12.6219C7.35968 12.621 6.6757 12.3372 6.17121 11.8328C5.66673 11.3283 5.38293 10.6443 5.38208 9.93083V6.64891C5.38208 6.52706 5.43049 6.41019 5.51665 6.32403C5.60282 6.23786 5.71968 6.18945 5.84154 6.18945H10.3047C10.4266 6.18945 10.5435 6.23786 10.6296 6.32403C10.7158 6.41019 10.7642 6.52706 10.7642 6.64891V9.93083C10.7633 10.6443 10.4795 11.3283 9.97506 11.8328C9.47057 12.3372 8.78659 12.621 8.07313 12.6219ZM6.301 7.10837V9.93083C6.301 10.4008 6.48771 10.8516 6.82005 11.1839C7.15239 11.5163 7.60313 11.703 8.07313 11.703C8.54313 11.703 8.99388 11.5163 9.32622 11.1839C9.65856 10.8516 9.84527 10.4008 9.84527 9.93083V7.10837H6.301Z" fill="#222222"/>
<path d="M12.5368 12.6219C11.8233 12.621 11.1393 12.3372 10.6348 11.8328C10.1303 11.3283 9.84655 10.6443 9.8457 9.93083V6.64891C9.8457 6.52706 9.89411 6.41019 9.98028 6.32403C10.0664 6.23786 10.1833 6.18945 10.3052 6.18945H14.7684C14.8902 6.18945 15.0071 6.23786 15.0932 6.32403C15.1794 6.41019 15.2278 6.52706 15.2278 6.64891V9.93083C15.227 10.6443 14.9432 11.3283 14.4387 11.8328C13.9342 12.3372 13.2502 12.621 12.5368 12.6219ZM10.7646 7.10837V9.93083C10.7646 10.4008 10.9513 10.8516 11.2837 11.1839C11.616 11.5163 12.0668 11.703 12.5368 11.703C13.0068 11.703 13.4575 11.5163 13.7898 11.1839C14.1222 10.8516 14.3089 10.4008 14.3089 9.93083V7.10837H10.7646Z" fill="#222222"/>
<path d="M17.0001 12.6219C16.2867 12.621 15.6027 12.3372 15.0982 11.8328C14.5937 11.3283 14.3099 10.6443 14.3091 9.93083V6.64891C14.3091 6.52706 14.3575 6.41019 14.4437 6.32403C14.5298 6.23786 14.6467 6.18945 14.7685 6.18945H19.2317C19.3536 6.18945 19.4704 6.23786 19.5566 6.32403C19.6428 6.41019 19.6912 6.52706 19.6912 6.64891V9.93083C19.6903 10.6443 19.4065 11.3283 18.9021 11.8328C18.3976 12.3372 17.7136 12.621 17.0001 12.6219ZM15.228 7.10837V9.93083C15.228 10.4008 15.4147 10.8516 15.747 11.1839C16.0794 11.5163 16.5301 11.703 17.0001 11.703C17.4701 11.703 17.9209 11.5163 18.2532 11.1839C18.5856 10.8516 18.7723 10.4008 18.7723 9.93083V7.10837H15.228Z" fill="#222222"/>
<path d="M21.4633 12.6219C20.7498 12.621 20.0658 12.3372 19.5613 11.8328C19.0569 11.3283 18.7731 10.6443 18.7722 9.93083V6.64891C18.7722 6.52706 18.8206 6.41019 18.9068 6.32403C18.993 6.23786 19.1098 6.18945 19.2317 6.18945H23.6949C23.8167 6.18945 23.9336 6.23786 24.0198 6.32403C24.1059 6.41019 24.1543 6.52706 24.1543 6.64891V9.93083C24.1535 10.6443 23.8697 11.3283 23.3652 11.8328C22.8607 12.3372 22.1767 12.621 21.4633 12.6219ZM19.6911 7.10837V9.93083C19.6911 10.4008 19.8778 10.8516 20.2102 11.1839C20.5425 11.5163 20.9933 11.703 21.4633 11.703C21.9333 11.703 22.384 11.5163 22.7164 11.1839C23.0487 10.8516 23.2354 10.4008 23.2354 9.93083V7.10837H19.6911Z" fill="#222222"/>
<path d="M25.9269 12.6219C25.2134 12.621 24.5295 12.3372 24.025 11.8328C23.5205 11.3283 23.2367 10.6443 23.2358 9.93083V6.64891C23.2358 6.52706 23.2842 6.41019 23.3704 6.32403C23.4566 6.23786 23.5734 6.18945 23.6953 6.18945H28.1585C28.2804 6.18945 28.3972 6.23786 28.4834 6.32403C28.5695 6.41019 28.618 6.52706 28.618 6.64891V9.93083C28.6171 10.6443 28.3333 11.3283 27.8288 11.8328C27.3243 12.3372 26.6403 12.621 25.9269 12.6219ZM24.1543 7.10837V9.93083C24.1543 10.4008 24.341 10.8516 24.6733 11.1839C25.0057 11.5163 25.4564 11.703 25.9264 11.703C26.3964 11.703 26.8472 11.5163 27.1795 11.1839C27.5119 10.8516 27.6986 10.4008 27.6986 9.93083V7.10837H24.1543Z" fill="#222222"/>
<path d="M30.39 12.6219C29.6766 12.621 28.9926 12.3372 28.4881 11.8328C27.9836 11.3283 27.6998 10.6443 27.699 9.93083V6.64891C27.699 6.52706 27.7474 6.41019 27.8335 6.32403C27.9197 6.23786 28.0366 6.18945 28.1584 6.18945H32.6216C32.7435 6.18945 32.8603 6.23786 32.9465 6.32403C33.0327 6.41019 33.0811 6.52706 33.0811 6.64891V9.93083C33.0802 10.6443 32.7964 11.3283 32.292 11.8328C31.7875 12.3372 31.1035 12.621 30.39 12.6219ZM28.6179 7.10837V9.93083C28.6179 10.4008 28.8046 10.8516 29.1369 11.1839C29.4693 11.5163 29.92 11.703 30.39 11.703C30.86 11.703 31.3108 11.5163 31.6431 11.1839C31.9755 10.8516 32.1622 10.4008 32.1622 9.93083V7.10837H28.6179Z" fill="#222222"/>
<path d="M31.2434 29.1621H2.71556C2.59371 29.1621 2.47684 29.1137 2.39068 29.0275C2.30451 28.9414 2.2561 28.8245 2.2561 28.7026V11.7026H3.17502V28.2432H30.7839V11.7026H31.7029V28.7026C31.7029 28.8245 31.6545 28.9414 31.5683 29.0275C31.4821 29.1137 31.3653 29.1621 31.2434 29.1621Z" fill="#222222"/>
<path d="M27.5674 29.1622H19.7566C19.6347 29.1622 19.5179 29.1138 19.4317 29.0276C19.3455 28.9415 19.2971 28.8246 19.2971 28.7027V15.8379C19.2971 15.716 19.3455 15.5992 19.4317 15.513C19.5179 15.4268 19.6347 15.3784 19.7566 15.3784H27.5674C27.6892 15.3784 27.8061 15.4268 27.8923 15.513C27.9784 15.5992 28.0268 15.716 28.0268 15.8379V28.7027C28.0268 28.8246 27.9784 28.9415 27.8923 29.0276C27.8061 29.1138 27.6892 29.1622 27.5674 29.1622ZM20.216 28.2433H27.1079V16.2973H20.216V28.2433Z" fill="#222222"/>
<path d="M17.0001 25.2565H5.51366C5.3918 25.2565 5.27494 25.2081 5.18877 25.122C5.10261 25.0358 5.0542 24.9189 5.0542 24.7971V15.6079C5.0542 15.486 5.10261 15.3692 5.18877 15.283C5.27494 15.1968 5.3918 15.1484 5.51366 15.1484H17.0001C17.122 15.1484 17.2389 15.1968 17.325 15.283C17.4112 15.3692 17.4596 15.486 17.4596 15.6079V24.7971C17.4596 24.9189 17.4112 25.0358 17.325 25.122C17.2389 25.2081 17.122 25.2565 17.0001 25.2565ZM5.97312 24.3376H16.5407V16.0674H5.97312V24.3376Z" fill="#222222"/>
</svg>
